<?xml version="1.0" standalone="no"?>
<!DOCTYPE svg PUBLIC "-//W3C//DTD SVG 20010904//EN"
 "http://www.w3.org/TR/2001/REC-SVG-20010904/DTD/svg10.dtd">
<svg version="1.0" xmlns="http://www.w3.org/2000/svg"
 width="128.000000pt" height="128.000000pt" viewBox="0 0 128.000000 128.000000"
 preserveAspectRatio="xMidYMid meet">
<metadata>
Created by potrace 1.14, written by Peter Selinger 2001-2017
</metadata>
<g transform="translate(0.000000,128.000000) scale(0.100000,-0.100000)"
fill="#000000" stroke="none">
<path d="M483 1198 c-25 -12 -63 -82 -63 -117 0 -12 7 -36 16 -53 14 -27 14
-30 1 -25 -27 10 -114 -41 -126 -74 -12 -34 -5 -59 15 -59 8 0 14 -4 14 -9 0
-5 11 -4 25 2 14 7 25 17 25 23 0 6 9 19 20 29 15 14 20 15 20 4 1 -9 5 -6 13
6 7 12 21 21 32 20 11 0 26 7 33 15 12 13 13 13 8 -2 -3 -10 -1 -18 4 -18 6 0
10 5 10 10 0 6 5 10 11 10 5 0 7 -6 3 -12 -5 -10 -4 -10 6 -1 7 6 19 9 28 6
10 -4 13 -2 8 5 -4 7 -5 12 -2 12 8 0 27 -39 32 -67 7 -37 -5 -63 -27 -63 -44
0 -149 -68 -149 -96 0 -7 -9 -18 -20 -24 -18 -10 -19 -9 -9 17 8 22 7 30 -6
39 -18 14 -99 10 -142 -7 -51 -19 -84 -62 -45 -58 33 3 33 -1 -1 -43 -51 -63
-85 -129 -100 -195 -15 -64 -13 -169 4 -198 4 -5 5 -18 4 -28 -2 -10 1 -14 8
-10 7 4 8 0 4 -11 -5 -12 -3 -16 5 -14 7 3 13 10 13 15 0 6 3 14 7 18 4 4 5
12 2 18 -2 7 4 22 14 35 l18 23 37 -36 c20 -20 37 -42 37 -50 0 -8 3 -15 8
-15 9 0 38 -61 34 -73 -1 -5 2 -6 7 -3 5 4 12 0 14 -6 6 -14 11 17 7 41 -1 11
2 10 15 -3 9 -9 21 -16 27 -16 6 0 5 -7 -3 -17 -10 -13 -8 -13 10 2 13 11 26
19 30 18 3 -1 8 1 11 4 3 4 -2 2 -10 -2 -12 -7 -13 -6 -3 7 7 8 10 18 6 21 -3
4 -4 7 -1 7 3 0 18 -19 33 -41 15 -23 21 -38 13 -34 -7 4 -2 -2 11 -13 13 -11
21 -24 17 -31 -4 -6 -2 -11 3 -11 6 0 11 15 11 34 0 36 14 56 23 34 4 -10 6
-10 6 0 2 20 27 14 40 -10 8 -16 10 -17 6 -4 -5 16 -3 17 10 6 12 -10 15 -10
15 4 0 9 -1 17 -2 19 -1 1 4 12 10 24 8 14 18 20 32 16 11 -3 17 -9 14 -14 -3
-5 4 -9 15 -9 12 0 21 -6 21 -12 0 -7 6 -2 13 12 10 19 19 24 40 22 15 -2 27
0 26 5 -3 17 1 33 9 32 16 -3 55 1 51 5 -2 3 -17 7 -33 10 -50 9 -150 46 -174
64 -21 16 -22 21 -10 46 12 27 11 30 -25 61 -30 26 -34 34 -22 39 10 3 13 11
9 18 -5 8 3 6 18 -4 19 -12 28 -14 37 -5 8 8 11 8 11 -1 0 -10 5 -10 20 -2 14
8 20 8 20 0 0 -6 4 -9 9 -5 5 3 13 0 16 -5 5 -8 13 -6 24 4 10 9 21 13 25 9
10 -11 76 -11 76 -1 0 4 5 8 11 8 5 0 7 -6 3 -12 -6 -9 -3 -9 9 0 9 8 21 11
27 7 5 -3 10 -1 10 5 0 6 4 9 9 6 5 -4 12 0 14 6 4 10 6 10 6 1 1 -7 6 -13 12
-13 5 0 8 4 4 9 -6 10 32 26 53 23 6 -2 12 1 12 6 0 5 25 19 55 32 30 13 52
27 48 33 -3 5 0 8 8 5 7 -2 20 3 29 12 8 9 13 11 10 5 -3 -6 6 1 19 15 13 14
20 18 15 10 -4 -9 -3 -12 2 -7 5 5 9 12 9 15 0 4 4 12 8 19 5 7 -9 23 -36 42
-92 63 -178 84 -347 86 -116 1 -135 3 -138 17 -2 9 7 22 19 28 12 7 19 8 16 3
-3 -5 3 -9 13 -9 12 0 16 4 10 11 -5 6 6 10 35 11 29 0 42 -3 38 -10 -4 -6 1
-4 12 4 10 8 20 14 23 12 6 -3 12 20 14 48 2 44 -6 63 -51 112 -36 40 -47 58
-40 69 6 10 9 10 9 2 0 -7 5 -13 11 -13 5 0 8 4 5 9 -8 13 37 0 46 -13 5 -8 8
-7 8 1 0 9 6 7 19 -4 11 -9 18 -20 15 -25 -3 -4 2 -5 11 -2 8 4 22 1 30 -6 12
-10 15 -10 15 0 0 8 3 11 6 7 4 -3 14 4 24 15 38 48 -34 128 -115 128 -40 0
-137 -38 -149 -59 -4 -6 -16 -16 -28 -22 -11 -6 -18 -7 -15 -2 9 14 -29 89
-54 107 -27 18 -102 20 -136 4z m95 -430 c-2 -6 -12 -12 -21 -14 -9 -1 -15 2
-11 7 3 5 10 7 15 4 5 -4 9 -1 9 4 0 6 3 11 6 11 3 0 4 -5 2 -12z"/>
<path d="M677 422 c6 -4 13 -14 15 -21 2 -8 17 -30 35 -49 18 -20 30 -39 27
-44 -3 -4 2 -5 10 -2 9 3 16 2 16 -4 0 -5 9 -12 21 -15 13 -4 19 -10 14 -19
-3 -7 1 -4 9 6 9 11 16 16 16 10 0 -5 5 -1 11 9 23 39 -32 90 -132 125 -40 13
-60 16 -42 4z"/>
<path d="M190 300 c0 -5 5 -10 11 -10 5 0 7 5 4 10 -3 6 -8 10 -11 10 -2 0 -4
-4 -4 -10z"/>
</g>
</svg>
